<svg xmlns="http://www.w3.org/2000/svg" width="353" height="353" overflow="hidden"><defs><clipPath id="a"><path d="M416 193h353v353H416z"/></clipPath></defs><g fill-rule="evenodd" clip-path="url(#a)" transform="translate(-416 -193)"><path fill="#5865F2" d="M416 369c0-97.202 78.798-176 176-176s176 78.798 176 176-78.798 176-176 176-176-78.798-176-176Z"/><path fill="#FFF" d="M671.287 297.462a186.36 186.36 0 0 0-46.833-14.471c-2.017 3.585-4.375 8.417-5.999 12.241-17.461-2.576-34.761-2.576-51.903 0-1.623-3.824-4.034-8.656-6.07-12.241a185.384 185.384 0 0 0-46.867 14.525c-29.639 44.079-37.671 87.097-33.655 129.478 19.658 14.472 38.708 23.234 57.437 28.997a139.791 139.791 0 0 0 12.302-19.969c-6.768-2.523-13.247-5.656-19.373-9.267a102.586 102.586 0 0 0 4.75-3.691c37.351 17.18 77.935 17.18 114.84 0a127.022 127.022 0 0 0 4.747 3.691 121.19 121.19 0 0 1-19.407 9.294 139.302 139.302 0 0 0 12.302 19.942c18.747-5.736 37.816-14.525 57.474-28.997 4.713-49.126-8.053-91.745-33.745-129.532Zm-116.5 103.482c-11.211 0-20.408-10.329-20.408-22.863 0-12.56 8.998-22.89 20.408-22.89 11.409 0 20.603 10.303 20.408 22.89.018 12.534-8.999 22.863-20.408 22.863Zm75.415 0c-11.211 0-20.405-10.329-20.405-22.863 0-12.56 8.999-22.89 20.405-22.89 11.41 0 20.606 10.303 20.408 22.89 0 12.534-8.998 22.863-20.408 22.863Z"/></g></svg>