<svg xmlns="http://www.w3.org/2000/svg" xmlns:xlink="http://www.w3.org/1999/xlink" width="756px" height="931px" viewBox="0 0 756 931"><defs><path id="a" d="M0 0h756v931H0z"/></defs><g fill="none" fill-rule="evenodd"><mask id="b" fill="#fff"><use xlink:href="#a"/></mask><path fill="#8051F4" d="M670.62 138.636c-152.205-184.848-433.03-184.848-585.24 0-113.842 138.253-113.842 339.97 0 478.222 61.162 74.279 143.104 118.64 229.117 133.225V899.47c0 28.033 33.908 42.072 53.738 22.25L645.21 644.856l-.26.075c8.884-8.861 17.494-18.147 25.669-28.073 113.846-138.253 113.846-339.97 0-478.222" mask="url(#b)"/><path fill="#FFF" d="M535.492 377.851c-17.394 0-31.499-14.1-31.499-31.487v-78.722c0-17.388 14.105-31.487 31.5-31.487 17.394 0 31.503 14.099 31.503 31.487v78.722c0 17.388-14.11 31.487-31.504 31.487M409.495 377.851c-17.394 0-31.498-14.1-31.498-31.487v-78.722c0-17.388 14.104-31.487 31.498-31.487 17.395 0 31.5 14.099 31.5 31.487v78.722c0 17.388-14.105 31.487-31.5 31.487M249.428 377.851h-.065c-21.89 0-35.57 23.515-24.964 42.657 43.513 78.528 123.22 134.23 216.627 144.54 16.83 1.86 31.47-11.57 31.47-28.493 0-14.624-11.06-26.749-25.6-28.393-74.177-8.387-137.575-52.798-172.29-115.242-5.119-9.201-14.649-15.069-25.178-15.069"/></g></svg>